<mxfile host="65bd71144e">
    <diagram id="uJ4X8tZM4djJGg5M1Jn0" name="Page-1">
        <mxGraphModel dx="1204" dy="379" grid="1" gridSize="10" guides="1" tooltips="1" connect="1" arrows="1" fold="1" page="1" pageScale="1" pageWidth="827" pageHeight="1169" background="#F4F1DE" math="0" shadow="0">
            <root>
                <mxCell id="0"/>
                <mxCell id="1" parent="0"/>
                <mxCell id="2" value="" style="shape=waypoint;sketch=0;fillStyle=solid;size=6;pointerEvents=1;points=[];fillColor=none;resizable=0;rotatable=0;perimeter=centerPerimeter;snapToPoint=1;strokeColor=#E07A5F;fontColor=#393C56;" parent="1" vertex="1">
                    <mxGeometry x="380" y="30" width="40" height="40" as="geometry"/>
                </mxCell>
                <mxCell id="3" value="" style="endArrow=classic;html=1;exitX=0.575;exitY=0.525;exitDx=0;exitDy=0;exitPerimeter=0;labelBackgroundColor=#F4F1DE;strokeColor=#E07A5F;fontColor=#393C56;" parent="1" source="2" target="4" edge="1">
                    <mxGeometry width="50" height="50" relative="1" as="geometry">
                        <mxPoint x="390" y="330" as="sourcePoint"/>
                        <mxPoint x="440" y="280" as="targetPoint"/>
                    </mxGeometry>
                </mxCell>
                <mxCell id="4" value="&lt;h2&gt;Entrer dans l'application&lt;/h2&gt;" style="rounded=1;whiteSpace=wrap;html=1;fillColor=#F2CC8F;strokeColor=#E07A5F;fontColor=#393C56;" parent="1" vertex="1">
                    <mxGeometry x="340" y="80" width="120" height="60" as="geometry"/>
                </mxCell>
                <mxCell id="5" value="&lt;h2&gt;Entrer la localisation&lt;/h2&gt;" style="rounded=1;whiteSpace=wrap;html=1;fillColor=#F2CC8F;strokeColor=#E07A5F;fontColor=#393C56;" parent="1" vertex="1">
                    <mxGeometry x="340" y="210" width="120" height="60" as="geometry"/>
                </mxCell>
                <mxCell id="6" value="" style="endArrow=classic;html=1;exitX=0.5;exitY=1;exitDx=0;exitDy=0;entryX=0.5;entryY=0;entryDx=0;entryDy=0;labelBackgroundColor=#F4F1DE;strokeColor=#E07A5F;fontColor=#393C56;" parent="1" source="4" target="5" edge="1">
                    <mxGeometry width="50" height="50" relative="1" as="geometry">
                        <mxPoint x="390" y="320" as="sourcePoint"/>
                        <mxPoint x="400" y="180" as="targetPoint"/>
                    </mxGeometry>
                </mxCell>
                <mxCell id="13" value="&lt;h2&gt;Filtrer par spécialité&lt;/h2&gt;" style="rounded=1;whiteSpace=wrap;html=1;fillColor=#F2CC8F;strokeColor=#E07A5F;fontColor=#393C56;" parent="1" vertex="1">
                    <mxGeometry x="590" y="370" width="120" height="70" as="geometry"/>
                </mxCell>
                <mxCell id="15" value="&lt;h2&gt;Selectionner un restaurant&lt;/h2&gt;" style="rounded=1;whiteSpace=wrap;html=1;fillColor=#F2CC8F;strokeColor=#E07A5F;fontColor=#393C56;" parent="1" vertex="1">
                    <mxGeometry x="340" y="560" width="120" height="60" as="geometry"/>
                </mxCell>
                <mxCell id="18" value="" style="line;strokeWidth=2;html=1;labelBackgroundColor=#F4F1DE;fillColor=#F2CC8F;strokeColor=#E07A5F;fontColor=#393C56;" parent="1" vertex="1">
                    <mxGeometry x="120" y="320" width="580" height="10" as="geometry"/>
                </mxCell>
                <mxCell id="22" value="&lt;h2&gt;Consulter les avis&lt;/h2&gt;" style="rounded=1;whiteSpace=wrap;html=1;fillColor=#F2CC8F;strokeColor=#E07A5F;fontColor=#393C56;" parent="1" vertex="1">
                    <mxGeometry x="100" y="740" width="120" height="60" as="geometry"/>
                </mxCell>
                <mxCell id="23" value="&lt;h2&gt;&lt;span&gt;Consulter menus&lt;/span&gt;&lt;/h2&gt;" style="rounded=1;whiteSpace=wrap;html=1;fillColor=#F2CC8F;strokeColor=#E07A5F;fontColor=#393C56;" parent="1" vertex="1">
                    <mxGeometry x="580" y="740" width="120" height="60" as="geometry"/>
                </mxCell>
                <mxCell id="36" value="" style="edgeStyle=elbowEdgeStyle;elbow=horizontal;endArrow=classic;html=1;entryX=0;entryY=0.5;entryDx=0;entryDy=0;exitX=0;exitY=0.5;exitDx=0;exitDy=0;labelBackgroundColor=#F4F1DE;strokeColor=#E07A5F;fontColor=#393C56;" parent="1" source="70" target="15" edge="1">
                    <mxGeometry width="50" height="50" relative="1" as="geometry">
                        <mxPoint x="370" y="650" as="sourcePoint"/>
                        <mxPoint x="200" y="881" as="targetPoint"/>
                        <Array as="points">
                            <mxPoint x="80" y="500"/>
                        </Array>
                    </mxGeometry>
                </mxCell>
                <mxCell id="38" value="&lt;font style=&quot;font-size: 14px&quot;&gt;&lt;b&gt;non satisfait&lt;/b&gt;&lt;/font&gt;" style="text;html=1;strokeColor=none;fillColor=none;align=center;verticalAlign=middle;whiteSpace=wrap;rounded=0;fontColor=#393C56;" parent="1" vertex="1">
                    <mxGeometry x="260" y="910" width="80" height="20" as="geometry"/>
                </mxCell>
                <mxCell id="45" value="satisfait" style="text;html=1;strokeColor=none;fillColor=none;align=center;verticalAlign=middle;whiteSpace=wrap;rounded=0;strokeWidth=4;fontColor=#393C56;fontSize=14;fontStyle=1" parent="1" vertex="1">
                    <mxGeometry x="414" y="970" width="40" height="20" as="geometry"/>
                </mxCell>
                <mxCell id="70" value="" style="rhombus;whiteSpace=wrap;html=1;fillColor=#F2CC8F;strokeColor=#E07A5F;fontColor=#393C56;" parent="1" vertex="1">
                    <mxGeometry x="375" y="910" width="50" height="60" as="geometry"/>
                </mxCell>
                <mxCell id="83" value="&lt;h2&gt;Nom du restaurant&lt;/h2&gt;" style="rounded=1;whiteSpace=wrap;html=1;fillColor=#F2CC8F;strokeColor=#E07A5F;fontColor=#393C56;" parent="1" vertex="1">
                    <mxGeometry x="110" y="370" width="120" height="70" as="geometry"/>
                </mxCell>
                <mxCell id="84" value="" style="line;strokeWidth=2;html=1;labelBackgroundColor=#F4F1DE;fillColor=#F2CC8F;strokeColor=#E07A5F;fontColor=#393C56;" parent="1" vertex="1">
                    <mxGeometry x="120" y="480" width="580" height="10" as="geometry"/>
                </mxCell>
                <mxCell id="87" value="" style="endArrow=classic;html=1;entryX=0.483;entryY=0.7;entryDx=0;entryDy=0;entryPerimeter=0;exitX=0.5;exitY=1;exitDx=0;exitDy=0;labelBackgroundColor=#F4F1DE;strokeColor=#E07A5F;fontColor=#393C56;" parent="1" source="5" target="18" edge="1">
                    <mxGeometry width="50" height="50" relative="1" as="geometry">
                        <mxPoint x="360" y="440" as="sourcePoint"/>
                        <mxPoint x="410" y="390" as="targetPoint"/>
                    </mxGeometry>
                </mxCell>
                <mxCell id="88" value="" style="endArrow=classic;html=1;exitX=0.067;exitY=0.7;exitDx=0;exitDy=0;exitPerimeter=0;entryX=0.4;entryY=0.014;entryDx=0;entryDy=0;entryPerimeter=0;labelBackgroundColor=#F4F1DE;strokeColor=#E07A5F;fontColor=#393C56;" parent="1" source="18" target="83" edge="1">
                    <mxGeometry width="50" height="50" relative="1" as="geometry">
                        <mxPoint x="360" y="440" as="sourcePoint"/>
                        <mxPoint x="410" y="390" as="targetPoint"/>
                    </mxGeometry>
                </mxCell>
                <mxCell id="89" value="" style="endArrow=classic;html=1;exitX=0.898;exitY=0.6;exitDx=0;exitDy=0;exitPerimeter=0;entryX=0.425;entryY=-0.029;entryDx=0;entryDy=0;entryPerimeter=0;labelBackgroundColor=#F4F1DE;strokeColor=#E07A5F;fontColor=#393C56;" parent="1" source="18" target="13" edge="1">
                    <mxGeometry width="50" height="50" relative="1" as="geometry">
                        <mxPoint x="360" y="440" as="sourcePoint"/>
                        <mxPoint x="410" y="390" as="targetPoint"/>
                    </mxGeometry>
                </mxCell>
                <mxCell id="90" value="" style="endArrow=classic;html=1;exitX=0.433;exitY=1.014;exitDx=0;exitDy=0;exitPerimeter=0;entryX=0.9;entryY=0.6;entryDx=0;entryDy=0;entryPerimeter=0;labelBackgroundColor=#F4F1DE;strokeColor=#E07A5F;fontColor=#393C56;" parent="1" source="13" target="84" edge="1">
                    <mxGeometry width="50" height="50" relative="1" as="geometry">
                        <mxPoint x="360" y="440" as="sourcePoint"/>
                        <mxPoint x="410" y="390" as="targetPoint"/>
                    </mxGeometry>
                </mxCell>
                <mxCell id="91" value="" style="endArrow=classic;html=1;exitX=0.408;exitY=1.014;exitDx=0;exitDy=0;exitPerimeter=0;entryX=0.069;entryY=0.2;entryDx=0;entryDy=0;entryPerimeter=0;labelBackgroundColor=#F4F1DE;strokeColor=#E07A5F;fontColor=#393C56;" parent="1" source="83" target="84" edge="1">
                    <mxGeometry width="50" height="50" relative="1" as="geometry">
                        <mxPoint x="260" y="450" as="sourcePoint"/>
                        <mxPoint x="410" y="390" as="targetPoint"/>
                    </mxGeometry>
                </mxCell>
                <mxCell id="92" value="" style="endArrow=classic;html=1;exitX=0.483;exitY=0.4;exitDx=0;exitDy=0;exitPerimeter=0;entryX=0.5;entryY=0;entryDx=0;entryDy=0;labelBackgroundColor=#F4F1DE;strokeColor=#E07A5F;fontColor=#393C56;" parent="1" source="84" target="15" edge="1">
                    <mxGeometry width="50" height="50" relative="1" as="geometry">
                        <mxPoint x="360" y="670" as="sourcePoint"/>
                        <mxPoint x="410" y="620" as="targetPoint"/>
                    </mxGeometry>
                </mxCell>
                <mxCell id="93" value="" style="endArrow=classic;html=1;exitX=0.5;exitY=1;exitDx=0;exitDy=0;entryX=0.484;entryY=0.3;entryDx=0;entryDy=0;entryPerimeter=0;labelBackgroundColor=#F4F1DE;strokeColor=#E07A5F;fontColor=#393C56;" parent="1" source="15" target="95" edge="1">
                    <mxGeometry width="50" height="50" relative="1" as="geometry">
                        <mxPoint x="360" y="830" as="sourcePoint"/>
                        <mxPoint x="400" y="680" as="targetPoint"/>
                    </mxGeometry>
                </mxCell>
                <mxCell id="95" value="" style="line;strokeWidth=2;html=1;labelBackgroundColor=#F4F1DE;fillColor=#F2CC8F;strokeColor=#E07A5F;fontColor=#393C56;" parent="1" vertex="1">
                    <mxGeometry x="120" y="680" width="580" height="10" as="geometry"/>
                </mxCell>
                <mxCell id="96" value="" style="line;strokeWidth=2;html=1;labelBackgroundColor=#F4F1DE;fillColor=#F2CC8F;strokeColor=#E07A5F;fontColor=#393C56;" parent="1" vertex="1">
                    <mxGeometry x="115" y="830" width="580" height="10" as="geometry"/>
                </mxCell>
                <mxCell id="97" value="" style="endArrow=classic;html=1;entryX=0.907;entryY=0.7;entryDx=0;entryDy=0;entryPerimeter=0;exitX=0.5;exitY=1;exitDx=0;exitDy=0;labelBackgroundColor=#F4F1DE;strokeColor=#E07A5F;fontColor=#393C56;" parent="1" source="23" target="96" edge="1">
                    <mxGeometry width="50" height="50" relative="1" as="geometry">
                        <mxPoint x="360" y="920" as="sourcePoint"/>
                        <mxPoint x="410" y="870" as="targetPoint"/>
                    </mxGeometry>
                </mxCell>
                <mxCell id="99" value="" style="endArrow=classic;html=1;exitX=0.897;exitY=0.7;exitDx=0;exitDy=0;exitPerimeter=0;entryX=0.5;entryY=0;entryDx=0;entryDy=0;labelBackgroundColor=#F4F1DE;strokeColor=#E07A5F;fontColor=#393C56;" parent="1" source="95" target="23" edge="1">
                    <mxGeometry width="50" height="50" relative="1" as="geometry">
                        <mxPoint x="360" y="920" as="sourcePoint"/>
                        <mxPoint x="410" y="870" as="targetPoint"/>
                    </mxGeometry>
                </mxCell>
                <mxCell id="100" value="" style="endArrow=classic;html=1;labelBackgroundColor=#F4F1DE;strokeColor=#E07A5F;fontColor=#393C56;" parent="1" edge="1">
                    <mxGeometry width="50" height="50" relative="1" as="geometry">
                        <mxPoint x="160" y="687" as="sourcePoint"/>
                        <mxPoint x="160" y="740" as="targetPoint"/>
                    </mxGeometry>
                </mxCell>
                <mxCell id="101" value="" style="endArrow=classic;html=1;entryX=0.076;entryY=0.4;entryDx=0;entryDy=0;entryPerimeter=0;exitX=0.5;exitY=1;exitDx=0;exitDy=0;labelBackgroundColor=#F4F1DE;strokeColor=#E07A5F;fontColor=#393C56;" parent="1" source="22" target="96" edge="1">
                    <mxGeometry width="50" height="50" relative="1" as="geometry">
                        <mxPoint x="360" y="920" as="sourcePoint"/>
                        <mxPoint x="410" y="870" as="targetPoint"/>
                    </mxGeometry>
                </mxCell>
                <mxCell id="102" value="" style="endArrow=classic;html=1;exitX=0.493;exitY=0.7;exitDx=0;exitDy=0;exitPerimeter=0;entryX=0.5;entryY=0;entryDx=0;entryDy=0;labelBackgroundColor=#F4F1DE;strokeColor=#E07A5F;fontColor=#393C56;" parent="1" source="96" target="70" edge="1">
                    <mxGeometry width="50" height="50" relative="1" as="geometry">
                        <mxPoint x="460" y="850" as="sourcePoint"/>
                        <mxPoint x="510" y="800" as="targetPoint"/>
                    </mxGeometry>
                </mxCell>
                <mxCell id="104" value="" style="endArrow=classic;html=1;entryX=0.5;entryY=0;entryDx=0;entryDy=0;exitX=0.5;exitY=1;exitDx=0;exitDy=0;labelBackgroundColor=#F4F1DE;strokeColor=#E07A5F;fontColor=#393C56;" parent="1" source="70" target="105" edge="1">
                    <mxGeometry width="50" height="50" relative="1" as="geometry">
                        <mxPoint x="460" y="1000" as="sourcePoint"/>
                        <mxPoint x="400" y="1040" as="targetPoint"/>
                    </mxGeometry>
                </mxCell>
                <mxCell id="105" value="&lt;h2&gt;Créer un panier&lt;/h2&gt;" style="rounded=1;whiteSpace=wrap;html=1;sketch=0;fontColor=#393C56;strokeColor=#E07A5F;fillColor=#F2CC8F;" vertex="1" parent="1">
                    <mxGeometry x="340" y="1040" width="120" height="60" as="geometry"/>
                </mxCell>
                <mxCell id="106" value="&lt;h2&gt;Ajouter un menu&lt;/h2&gt;" style="rounded=1;whiteSpace=wrap;html=1;sketch=0;fontColor=#393C56;strokeColor=#E07A5F;fillColor=#F2CC8F;" vertex="1" parent="1">
                    <mxGeometry x="340" y="1177" width="120" height="60" as="geometry"/>
                </mxCell>
                <mxCell id="107" value="" style="endArrow=classic;html=1;exitX=0.5;exitY=1;exitDx=0;exitDy=0;labelBackgroundColor=#F4F1DE;strokeColor=#E07A5F;fontColor=#393C56;entryX=0.5;entryY=0;entryDx=0;entryDy=0;" edge="1" parent="1" source="105" target="106">
                    <mxGeometry width="50" height="50" relative="1" as="geometry">
                        <mxPoint x="399.29" y="1107" as="sourcePoint"/>
                        <mxPoint x="399" y="1182" as="targetPoint"/>
                    </mxGeometry>
                </mxCell>
                <mxCell id="108" value="&lt;h2&gt;Ouvrir le panier&lt;/h2&gt;" style="rounded=1;whiteSpace=wrap;html=1;sketch=0;fontColor=#393C56;strokeColor=#E07A5F;fillColor=#F2CC8F;" vertex="1" parent="1">
                    <mxGeometry x="110" y="1291" width="120" height="60" as="geometry"/>
                </mxCell>
                <mxCell id="110" value="" style="endArrow=classic;html=1;fontColor=#393C56;strokeColor=#E07A5F;fillColor=#F2CC8F;exitX=0;exitY=0.5;exitDx=0;exitDy=0;entryX=1;entryY=0.5;entryDx=0;entryDy=0;labelBackgroundColor=#F4F1DE;exitPerimeter=0;" edge="1" parent="1" source="121" target="108">
                    <mxGeometry width="50" height="50" relative="1" as="geometry">
                        <mxPoint x="365" y="1321" as="sourcePoint"/>
                        <mxPoint x="230" y="1201" as="targetPoint"/>
                    </mxGeometry>
                </mxCell>
                <mxCell id="111" value="&lt;h3&gt;Modifier panier&lt;/h3&gt;" style="text;html=1;align=center;verticalAlign=middle;whiteSpace=wrap;rounded=0;sketch=0;fontColor=#393C56;" vertex="1" parent="1">
                    <mxGeometry x="265" y="1291" width="110" height="20" as="geometry"/>
                </mxCell>
                <mxCell id="112" value="" style="endArrow=classic;html=1;fontColor=#393C56;strokeColor=#E07A5F;fillColor=#F2CC8F;exitX=0.5;exitY=1;exitDx=0;exitDy=0;entryX=0.5;entryY=0;entryDx=0;entryDy=0;labelBackgroundColor=#F4F1DE;" edge="1" parent="1" target="121">
                    <mxGeometry width="50" height="50" relative="1" as="geometry">
                        <mxPoint x="400" y="1241" as="sourcePoint"/>
                        <mxPoint x="400" y="1291" as="targetPoint"/>
                    </mxGeometry>
                </mxCell>
                <mxCell id="113" value="&lt;h2&gt;Choisir Menu à retirer&lt;/h2&gt;" style="rounded=1;whiteSpace=wrap;html=1;sketch=0;fontColor=#393C56;strokeColor=#E07A5F;fillColor=#F2CC8F;" vertex="1" parent="1">
                    <mxGeometry x="110" y="1391" width="120" height="60" as="geometry"/>
                </mxCell>
                <mxCell id="114" value="&lt;h2&gt;Retirer un menu&lt;/h2&gt;" style="rounded=1;whiteSpace=wrap;html=1;sketch=0;fontColor=#393C56;strokeColor=#E07A5F;fillColor=#F2CC8F;" vertex="1" parent="1">
                    <mxGeometry x="110" y="1497" width="120" height="60" as="geometry"/>
                </mxCell>
                <mxCell id="115" value="" style="endArrow=classic;html=1;fontColor=#393C56;strokeColor=#E07A5F;fillColor=#F2CC8F;exitX=0.5;exitY=1;exitDx=0;exitDy=0;entryX=0.5;entryY=0;entryDx=0;entryDy=0;labelBackgroundColor=#F4F1DE;" edge="1" parent="1" target="113">
                    <mxGeometry width="50" height="50" relative="1" as="geometry">
                        <mxPoint x="170" y="1351" as="sourcePoint"/>
                        <mxPoint x="440" y="1201" as="targetPoint"/>
                    </mxGeometry>
                </mxCell>
                <mxCell id="116" value="" style="endArrow=classic;html=1;fontColor=#393C56;strokeColor=#E07A5F;fillColor=#F2CC8F;exitX=0.5;exitY=1;exitDx=0;exitDy=0;entryX=0.5;entryY=0;entryDx=0;entryDy=0;labelBackgroundColor=#F4F1DE;" edge="1" parent="1">
                    <mxGeometry width="50" height="50" relative="1" as="geometry">
                        <mxPoint x="169.41" y="1447" as="sourcePoint"/>
                        <mxPoint x="169.41" y="1497" as="targetPoint"/>
                    </mxGeometry>
                </mxCell>
                <mxCell id="117" value="" style="rhombus;whiteSpace=wrap;html=1;rounded=0;sketch=0;fontColor=#393C56;strokeColor=#E07A5F;fillColor=#F2CC8F;" vertex="1" parent="1">
                    <mxGeometry x="370" y="1489" width="60" height="70" as="geometry"/>
                </mxCell>
                <mxCell id="118" value="" style="edgeStyle=elbowEdgeStyle;elbow=horizontal;endArrow=classic;html=1;fontColor=#393C56;strokeColor=#E07A5F;fillColor=#F2CC8F;exitX=1;exitY=0.5;exitDx=0;exitDy=0;entryX=1;entryY=0.5;entryDx=0;entryDy=0;labelBackgroundColor=#F4F1DE;" edge="1" parent="1" source="117">
                    <mxGeometry width="50" height="50" relative="1" as="geometry">
                        <mxPoint x="544" y="1574" as="sourcePoint"/>
                        <mxPoint x="464" y="1214" as="targetPoint"/>
                        <Array as="points">
                            <mxPoint x="644" y="1594"/>
                        </Array>
                    </mxGeometry>
                </mxCell>
                <mxCell id="119" value="" style="endArrow=classic;html=1;fontColor=#393C56;strokeColor=#E07A5F;fillColor=#F2CC8F;exitX=1;exitY=0.5;exitDx=0;exitDy=0;entryX=0;entryY=0.5;entryDx=0;entryDy=0;labelBackgroundColor=#F4F1DE;" edge="1" parent="1" target="117">
                    <mxGeometry width="50" height="50" relative="1" as="geometry">
                        <mxPoint x="234" y="1523.5" as="sourcePoint"/>
                        <mxPoint x="344" y="1523.5" as="targetPoint"/>
                    </mxGeometry>
                </mxCell>
                <mxCell id="120" value="" style="endArrow=classic;html=1;fontColor=#393C56;strokeColor=#E07A5F;fillColor=#F2CC8F;exitX=0.5;exitY=1;exitDx=0;exitDy=0;labelBackgroundColor=#F4F1DE;" edge="1" parent="1" source="117">
                    <mxGeometry width="50" height="50" relative="1" as="geometry">
                        <mxPoint x="378.4100000000001" y="1568.9999999999998" as="sourcePoint"/>
                        <mxPoint x="400" y="1642" as="targetPoint"/>
                    </mxGeometry>
                </mxCell>
                <mxCell id="121" value="" style="rhombus;whiteSpace=wrap;html=1;rounded=0;sketch=0;fontColor=#393C56;strokeColor=#E07A5F;fillColor=#F2CC8F;" vertex="1" parent="1">
                    <mxGeometry x="370" y="1286" width="60" height="70" as="geometry"/>
                </mxCell>
                <mxCell id="123" value="" style="endArrow=classic;html=1;fontColor=#393C56;strokeColor=#E07A5F;fillColor=#F2CC8F;exitX=0.5;exitY=1;exitDx=0;exitDy=0;labelBackgroundColor=#F4F1DE;" edge="1" parent="1" source="121">
                    <mxGeometry width="50" height="50" relative="1" as="geometry">
                        <mxPoint x="399.41" y="1406" as="sourcePoint"/>
                        <mxPoint x="399.41" y="1489" as="targetPoint"/>
                    </mxGeometry>
                </mxCell>
                <mxCell id="124" value="&lt;h3&gt;Ajouter menu&lt;/h3&gt;" style="text;html=1;align=center;verticalAlign=middle;whiteSpace=wrap;rounded=0;sketch=0;fontColor=#393C56;" vertex="1" parent="1">
                    <mxGeometry x="410" y="1497" width="140" height="20" as="geometry"/>
                </mxCell>
                <mxCell id="125" value="&lt;h3&gt;Ne pas ajouter menu&lt;/h3&gt;" style="text;html=1;align=center;verticalAlign=middle;whiteSpace=wrap;rounded=0;sketch=0;fontColor=#393C56;" vertex="1" parent="1">
                    <mxGeometry x="274" y="1559" width="140" height="20" as="geometry"/>
                </mxCell>
                <mxCell id="127" value="&lt;h3&gt;Pas modifier panier&lt;/h3&gt;" style="text;html=1;align=center;verticalAlign=middle;whiteSpace=wrap;rounded=0;sketch=0;fontColor=#393C56;" vertex="1" parent="1">
                    <mxGeometry x="400" y="1356" width="140" height="20" as="geometry"/>
                </mxCell>
                <mxCell id="130" value="&lt;h2&gt;Enregistrer la commande&lt;/h2&gt;" style="rounded=1;whiteSpace=wrap;html=1;sketch=0;fontColor=#393C56;strokeColor=#E07A5F;fillColor=#F2CC8F;" vertex="1" parent="1">
                    <mxGeometry x="340" y="1740" width="120" height="60" as="geometry"/>
                </mxCell>
                <mxCell id="131" value="&lt;h2&gt;Valider le panier&lt;/h2&gt;" style="rounded=1;whiteSpace=wrap;html=1;sketch=0;fontColor=#393C56;strokeColor=#E07A5F;fillColor=#F2CC8F;" vertex="1" parent="1">
                    <mxGeometry x="340" y="1640" width="120" height="60" as="geometry"/>
                </mxCell>
                <mxCell id="132" value="&lt;h2&gt;Donner un avis&lt;/h2&gt;" style="rounded=1;whiteSpace=wrap;html=1;sketch=0;fontColor=#393C56;strokeColor=#E07A5F;fillColor=#F2CC8F;" vertex="1" parent="1">
                    <mxGeometry x="340" y="1830" width="120" height="60" as="geometry"/>
                </mxCell>
                <mxCell id="133" value="" style="endArrow=classic;html=1;fontColor=#393C56;strokeColor=#E07A5F;fillColor=#F2CC8F;exitX=0.5;exitY=1;exitDx=0;exitDy=0;entryX=0.5;entryY=0;entryDx=0;entryDy=0;labelBackgroundColor=#F4F1DE;" edge="1" parent="1" source="131" target="130">
                    <mxGeometry width="50" height="50" relative="1" as="geometry">
                        <mxPoint x="540" y="1680" as="sourcePoint"/>
                        <mxPoint x="590" y="1630" as="targetPoint"/>
                    </mxGeometry>
                </mxCell>
                <mxCell id="135" value="" style="endArrow=classic;html=1;fontColor=#393C56;strokeColor=#E07A5F;fillColor=#F2CC8F;exitX=0.5;exitY=1;exitDx=0;exitDy=0;entryX=0.5;entryY=0;entryDx=0;entryDy=0;labelBackgroundColor=#F4F1DE;" edge="1" parent="1" source="130" target="132">
                    <mxGeometry width="50" height="50" relative="1" as="geometry">
                        <mxPoint x="540" y="1790" as="sourcePoint"/>
                        <mxPoint x="590" y="1740" as="targetPoint"/>
                    </mxGeometry>
                </mxCell>
            </root>
        </mxGraphModel>
    </diagram>
    <diagram id="Pvk16Yk9mmTxDUWuedHs" name="Page-2">
        <mxGraphModel dx="777" dy="265" grid="0" gridSize="10" guides="1" tooltips="1" connect="1" arrows="1" fold="1" page="1" pageScale="1" pageWidth="827" pageHeight="1169" background="#F4F1DE" math="0" shadow="0">
            <root>
                <mxCell id="Tb9AdFsS8pXjhhtc2Pzk-0"/>
                <mxCell id="Tb9AdFsS8pXjhhtc2Pzk-1" parent="Tb9AdFsS8pXjhhtc2Pzk-0"/>
                <mxCell id="Tb9AdFsS8pXjhhtc2Pzk-2" value="" style="shape=waypoint;sketch=0;fillStyle=solid;size=6;pointerEvents=1;points=[];fillColor=none;resizable=0;rotatable=0;perimeter=centerPerimeter;snapToPoint=1;rounded=0;fontColor=#393C56;strokeColor=#E07A5F;" parent="Tb9AdFsS8pXjhhtc2Pzk-1" vertex="1">
                    <mxGeometry x="380" y="20" width="40" height="40" as="geometry"/>
                </mxCell>
                <mxCell id="Tb9AdFsS8pXjhhtc2Pzk-3" value="&lt;h2&gt;Ajouter une comande&lt;/h2&gt;" style="rounded=1;whiteSpace=wrap;html=1;sketch=0;fontColor=#393C56;strokeColor=#E07A5F;fillColor=#F2CC8F;" parent="Tb9AdFsS8pXjhhtc2Pzk-1" vertex="1">
                    <mxGeometry x="340" y="640" width="120" height="60" as="geometry"/>
                </mxCell>
                <mxCell id="Tb9AdFsS8pXjhhtc2Pzk-4" value="&lt;h2&gt;Choisir Menu à retirer&lt;/h2&gt;" style="rounded=1;whiteSpace=wrap;html=1;sketch=0;fontColor=#393C56;strokeColor=#E07A5F;fillColor=#F2CC8F;" parent="Tb9AdFsS8pXjhhtc2Pzk-1" vertex="1">
                    <mxGeometry x="80" y="540" width="120" height="60" as="geometry"/>
                </mxCell>
                <mxCell id="Tb9AdFsS8pXjhhtc2Pzk-5" value="&lt;h2&gt;Enregistrer la commande&lt;/h2&gt;" style="rounded=1;whiteSpace=wrap;html=1;sketch=0;fontColor=#393C56;strokeColor=#E07A5F;fillColor=#F2CC8F;" parent="Tb9AdFsS8pXjhhtc2Pzk-1" vertex="1">
                    <mxGeometry x="340" y="940" width="120" height="60" as="geometry"/>
                </mxCell>
                <mxCell id="Tb9AdFsS8pXjhhtc2Pzk-6" value="&lt;h2&gt;Retirer un menu&lt;/h2&gt;" style="rounded=1;whiteSpace=wrap;html=1;sketch=0;fontColor=#393C56;strokeColor=#E07A5F;fillColor=#F2CC8F;" parent="Tb9AdFsS8pXjhhtc2Pzk-1" vertex="1">
                    <mxGeometry x="80" y="640" width="120" height="60" as="geometry"/>
                </mxCell>
                <mxCell id="Tb9AdFsS8pXjhhtc2Pzk-7" value="&lt;h2&gt;Valider le panier&lt;/h2&gt;" style="rounded=1;whiteSpace=wrap;html=1;sketch=0;fontColor=#393C56;strokeColor=#E07A5F;fillColor=#F2CC8F;" parent="Tb9AdFsS8pXjhhtc2Pzk-1" vertex="1">
                    <mxGeometry x="340" y="840" width="120" height="60" as="geometry"/>
                </mxCell>
                <mxCell id="Tb9AdFsS8pXjhhtc2Pzk-8" value="&lt;h2&gt;Ajouter un menu&lt;/h2&gt;" style="rounded=1;whiteSpace=wrap;html=1;sketch=0;fontColor=#393C56;strokeColor=#E07A5F;fillColor=#F2CC8F;" parent="Tb9AdFsS8pXjhhtc2Pzk-1" vertex="1">
                    <mxGeometry x="340" y="330" width="120" height="60" as="geometry"/>
                </mxCell>
                <mxCell id="Tb9AdFsS8pXjhhtc2Pzk-9" value="&lt;h2&gt;Ouvrir le panier&lt;/h2&gt;" style="rounded=1;whiteSpace=wrap;html=1;sketch=0;fontColor=#393C56;strokeColor=#E07A5F;fillColor=#F2CC8F;" parent="Tb9AdFsS8pXjhhtc2Pzk-1" vertex="1">
                    <mxGeometry x="80" y="440" width="120" height="60" as="geometry"/>
                </mxCell>
                <mxCell id="Tb9AdFsS8pXjhhtc2Pzk-10" value="&lt;h2&gt;Créer un panier&lt;/h2&gt;" style="rounded=1;whiteSpace=wrap;html=1;sketch=0;fontColor=#393C56;strokeColor=#E07A5F;fillColor=#F2CC8F;" parent="Tb9AdFsS8pXjhhtc2Pzk-1" vertex="1">
                    <mxGeometry x="340" y="200" width="120" height="60" as="geometry"/>
                </mxCell>
                <mxCell id="Tb9AdFsS8pXjhhtc2Pzk-11" value="&lt;h2&gt;Créer une commande&lt;/h2&gt;" style="rounded=1;whiteSpace=wrap;html=1;sketch=0;fontColor=#393C56;strokeColor=#E07A5F;fillColor=#F2CC8F;" parent="Tb9AdFsS8pXjhhtc2Pzk-1" vertex="1">
                    <mxGeometry x="340" y="90" width="120" height="60" as="geometry"/>
                </mxCell>
                <mxCell id="Tb9AdFsS8pXjhhtc2Pzk-12" value="" style="endArrow=classic;html=1;fontColor=#393C56;strokeColor=#E07A5F;fillColor=#F2CC8F;exitX=0.45;exitY=0.675;exitDx=0;exitDy=0;exitPerimeter=0;entryX=0.5;entryY=0;entryDx=0;entryDy=0;labelBackgroundColor=#F4F1DE;" parent="Tb9AdFsS8pXjhhtc2Pzk-1" source="Tb9AdFsS8pXjhhtc2Pzk-2" target="Tb9AdFsS8pXjhhtc2Pzk-11" edge="1">
                    <mxGeometry width="50" height="50" relative="1" as="geometry">
                        <mxPoint x="390" y="270" as="sourcePoint"/>
                        <mxPoint x="440" y="220" as="targetPoint"/>
                    </mxGeometry>
                </mxCell>
                <mxCell id="Tb9AdFsS8pXjhhtc2Pzk-13" value="" style="endArrow=classic;html=1;fontColor=#393C56;strokeColor=#E07A5F;fillColor=#F2CC8F;exitX=0.5;exitY=1;exitDx=0;exitDy=0;entryX=0.5;entryY=0;entryDx=0;entryDy=0;entryPerimeter=0;labelBackgroundColor=#F4F1DE;" parent="Tb9AdFsS8pXjhhtc2Pzk-1" source="Tb9AdFsS8pXjhhtc2Pzk-11" target="Tb9AdFsS8pXjhhtc2Pzk-10" edge="1">
                    <mxGeometry width="50" height="50" relative="1" as="geometry">
                        <mxPoint x="390" y="270" as="sourcePoint"/>
                        <mxPoint x="400" y="190" as="targetPoint"/>
                    </mxGeometry>
                </mxCell>
                <mxCell id="Tb9AdFsS8pXjhhtc2Pzk-14" value="" style="rhombus;whiteSpace=wrap;html=1;rounded=0;sketch=0;fontColor=#393C56;strokeColor=#E07A5F;fillColor=#F2CC8F;" parent="Tb9AdFsS8pXjhhtc2Pzk-1" vertex="1">
                    <mxGeometry x="365" y="440" width="70" height="60" as="geometry"/>
                </mxCell>
                <mxCell id="Tb9AdFsS8pXjhhtc2Pzk-15" value="" style="endArrow=classic;html=1;fontColor=#393C56;strokeColor=#E07A5F;fillColor=#F2CC8F;exitX=0.5;exitY=1;exitDx=0;exitDy=0;labelBackgroundColor=#F4F1DE;" parent="Tb9AdFsS8pXjhhtc2Pzk-1" source="Tb9AdFsS8pXjhhtc2Pzk-10" edge="1">
                    <mxGeometry width="50" height="50" relative="1" as="geometry">
                        <mxPoint x="390" y="270" as="sourcePoint"/>
                        <mxPoint x="400" y="330" as="targetPoint"/>
                    </mxGeometry>
                </mxCell>
                <mxCell id="Tb9AdFsS8pXjhhtc2Pzk-16" value="" style="endArrow=classic;html=1;fontColor=#393C56;strokeColor=#E07A5F;fillColor=#F2CC8F;exitX=0;exitY=0.5;exitDx=0;exitDy=0;entryX=1;entryY=0.5;entryDx=0;entryDy=0;labelBackgroundColor=#F4F1DE;" parent="Tb9AdFsS8pXjhhtc2Pzk-1" source="Tb9AdFsS8pXjhhtc2Pzk-14" target="Tb9AdFsS8pXjhhtc2Pzk-9" edge="1">
                    <mxGeometry width="50" height="50" relative="1" as="geometry">
                        <mxPoint x="390" y="270" as="sourcePoint"/>
                        <mxPoint x="230" y="350" as="targetPoint"/>
                    </mxGeometry>
                </mxCell>
                <mxCell id="Tb9AdFsS8pXjhhtc2Pzk-19" value="&lt;h3&gt;Modifier panier&lt;/h3&gt;" style="text;html=1;align=center;verticalAlign=middle;whiteSpace=wrap;rounded=0;sketch=0;fontColor=#393C56;" parent="Tb9AdFsS8pXjhhtc2Pzk-1" vertex="1">
                    <mxGeometry x="230" y="440" width="110" height="20" as="geometry"/>
                </mxCell>
                <mxCell id="CWuYNWOtUaod2RrFY3A3-1" value="&lt;h3&gt;Pas modifier panier&lt;/h3&gt;" style="text;html=1;align=center;verticalAlign=middle;whiteSpace=wrap;rounded=0;sketch=0;fontColor=#393C56;" parent="Tb9AdFsS8pXjhhtc2Pzk-1" vertex="1">
                    <mxGeometry x="400" y="550" width="140" height="20" as="geometry"/>
                </mxCell>
                <mxCell id="CWuYNWOtUaod2RrFY3A3-2" value="" style="endArrow=classic;html=1;fontColor=#393C56;strokeColor=#E07A5F;fillColor=#F2CC8F;exitX=0.5;exitY=1;exitDx=0;exitDy=0;entryX=0.5;entryY=0;entryDx=0;entryDy=0;labelBackgroundColor=#F4F1DE;" parent="Tb9AdFsS8pXjhhtc2Pzk-1" source="Tb9AdFsS8pXjhhtc2Pzk-9" target="Tb9AdFsS8pXjhhtc2Pzk-4" edge="1">
                    <mxGeometry width="50" height="50" relative="1" as="geometry">
                        <mxPoint x="390" y="400" as="sourcePoint"/>
                        <mxPoint x="440" y="350" as="targetPoint"/>
                    </mxGeometry>
                </mxCell>
                <mxCell id="CWuYNWOtUaod2RrFY3A3-3" value="" style="endArrow=classic;html=1;fontColor=#393C56;strokeColor=#E07A5F;fillColor=#F2CC8F;exitX=0.5;exitY=1;exitDx=0;exitDy=0;entryX=0.5;entryY=0;entryDx=0;entryDy=0;labelBackgroundColor=#F4F1DE;" parent="Tb9AdFsS8pXjhhtc2Pzk-1" source="Tb9AdFsS8pXjhhtc2Pzk-4" target="Tb9AdFsS8pXjhhtc2Pzk-6" edge="1">
                    <mxGeometry width="50" height="50" relative="1" as="geometry">
                        <mxPoint x="390" y="590" as="sourcePoint"/>
                        <mxPoint x="440" y="540" as="targetPoint"/>
                    </mxGeometry>
                </mxCell>
                <mxCell id="CWuYNWOtUaod2RrFY3A3-5" value="" style="endArrow=classic;html=1;fontColor=#393C56;strokeColor=#E07A5F;fillColor=#F2CC8F;exitX=0.5;exitY=1;exitDx=0;exitDy=0;entryX=0.5;entryY=0;entryDx=0;entryDy=0;labelBackgroundColor=#F4F1DE;" parent="Tb9AdFsS8pXjhhtc2Pzk-1" source="Tb9AdFsS8pXjhhtc2Pzk-8" target="Tb9AdFsS8pXjhhtc2Pzk-14" edge="1">
                    <mxGeometry width="50" height="50" relative="1" as="geometry">
                        <mxPoint x="390" y="480" as="sourcePoint"/>
                        <mxPoint x="440" y="430" as="targetPoint"/>
                    </mxGeometry>
                </mxCell>
                <mxCell id="CWuYNWOtUaod2RrFY3A3-11" value="" style="endArrow=classic;html=1;fontColor=#393C56;strokeColor=#E07A5F;fillColor=#F2CC8F;exitX=0.5;exitY=1;exitDx=0;exitDy=0;entryX=0.5;entryY=0;entryDx=0;entryDy=0;labelBackgroundColor=#F4F1DE;" parent="Tb9AdFsS8pXjhhtc2Pzk-1" source="Tb9AdFsS8pXjhhtc2Pzk-14" target="Tb9AdFsS8pXjhhtc2Pzk-3" edge="1">
                    <mxGeometry width="50" height="50" relative="1" as="geometry">
                        <mxPoint x="390" y="620" as="sourcePoint"/>
                        <mxPoint x="450" y="680" as="targetPoint"/>
                    </mxGeometry>
                </mxCell>
                <mxCell id="CWuYNWOtUaod2RrFY3A3-12" value="" style="rhombus;whiteSpace=wrap;html=1;rounded=0;sketch=0;fontColor=#393C56;strokeColor=#E07A5F;fillColor=#F2CC8F;" parent="Tb9AdFsS8pXjhhtc2Pzk-1" vertex="1">
                    <mxGeometry x="370" y="740" width="60" height="70" as="geometry"/>
                </mxCell>
                <mxCell id="CWuYNWOtUaod2RrFY3A3-13" value="&lt;h2&gt;Donnez les avis&lt;/h2&gt;" style="rounded=1;whiteSpace=wrap;html=1;sketch=0;fontColor=#393C56;strokeColor=#E07A5F;fillColor=#F2CC8F;" parent="Tb9AdFsS8pXjhhtc2Pzk-1" vertex="1">
                    <mxGeometry x="340" y="1030" width="120" height="60" as="geometry"/>
                </mxCell>
                <mxCell id="CWuYNWOtUaod2RrFY3A3-14" value="" style="shape=waypoint;sketch=0;fillStyle=solid;size=6;pointerEvents=1;points=[];fillColor=none;resizable=0;rotatable=0;perimeter=centerPerimeter;snapToPoint=1;rounded=0;fontColor=#393C56;strokeColor=#E07A5F;" parent="Tb9AdFsS8pXjhhtc2Pzk-1" vertex="1">
                    <mxGeometry x="380" y="1129" width="40" height="40" as="geometry"/>
                </mxCell>
                <mxCell id="CWuYNWOtUaod2RrFY3A3-16" value="" style="endArrow=classic;html=1;fontColor=#393C56;strokeColor=#E07A5F;fillColor=#F2CC8F;exitX=1;exitY=0.5;exitDx=0;exitDy=0;entryX=0;entryY=0.5;entryDx=0;entryDy=0;labelBackgroundColor=#F4F1DE;" parent="Tb9AdFsS8pXjhhtc2Pzk-1" source="Tb9AdFsS8pXjhhtc2Pzk-6" target="Tb9AdFsS8pXjhhtc2Pzk-3" edge="1">
                    <mxGeometry width="50" height="50" relative="1" as="geometry">
                        <mxPoint x="540" y="680" as="sourcePoint"/>
                        <mxPoint x="590" y="630" as="targetPoint"/>
                    </mxGeometry>
                </mxCell>
                <mxCell id="CWuYNWOtUaod2RrFY3A3-17" value="" style="endArrow=classic;html=1;fontColor=#393C56;strokeColor=#E07A5F;fillColor=#F2CC8F;exitX=0.5;exitY=1;exitDx=0;exitDy=0;labelBackgroundColor=#F4F1DE;" parent="Tb9AdFsS8pXjhhtc2Pzk-1" source="Tb9AdFsS8pXjhhtc2Pzk-3" edge="1">
                    <mxGeometry width="50" height="50" relative="1" as="geometry">
                        <mxPoint x="540" y="680" as="sourcePoint"/>
                        <mxPoint x="400" y="740" as="targetPoint"/>
                    </mxGeometry>
                </mxCell>
                <mxCell id="CWuYNWOtUaod2RrFY3A3-18" value="" style="endArrow=classic;html=1;fontColor=#393C56;strokeColor=#E07A5F;fillColor=#F2CC8F;exitX=0.5;exitY=1;exitDx=0;exitDy=0;entryX=0.5;entryY=0;entryDx=0;entryDy=0;labelBackgroundColor=#F4F1DE;" parent="Tb9AdFsS8pXjhhtc2Pzk-1" source="CWuYNWOtUaod2RrFY3A3-12" target="Tb9AdFsS8pXjhhtc2Pzk-7" edge="1">
                    <mxGeometry width="50" height="50" relative="1" as="geometry">
                        <mxPoint x="540" y="880" as="sourcePoint"/>
                        <mxPoint x="590" y="830" as="targetPoint"/>
                    </mxGeometry>
                </mxCell>
                <mxCell id="CWuYNWOtUaod2RrFY3A3-19" value="" style="endArrow=classic;html=1;fontColor=#393C56;strokeColor=#E07A5F;fillColor=#F2CC8F;exitX=0.5;exitY=1;exitDx=0;exitDy=0;entryX=0.5;entryY=0;entryDx=0;entryDy=0;labelBackgroundColor=#F4F1DE;" parent="Tb9AdFsS8pXjhhtc2Pzk-1" source="Tb9AdFsS8pXjhhtc2Pzk-7" target="Tb9AdFsS8pXjhhtc2Pzk-5" edge="1">
                    <mxGeometry width="50" height="50" relative="1" as="geometry">
                        <mxPoint x="540" y="880" as="sourcePoint"/>
                        <mxPoint x="590" y="830" as="targetPoint"/>
                    </mxGeometry>
                </mxCell>
                <mxCell id="CWuYNWOtUaod2RrFY3A3-20" value="" style="endArrow=classic;html=1;fontColor=#393C56;strokeColor=#E07A5F;fillColor=#F2CC8F;exitX=0.5;exitY=1;exitDx=0;exitDy=0;labelBackgroundColor=#F4F1DE;" parent="Tb9AdFsS8pXjhhtc2Pzk-1" source="CWuYNWOtUaod2RrFY3A3-13" target="CWuYNWOtUaod2RrFY3A3-14" edge="1">
                    <mxGeometry width="50" height="50" relative="1" as="geometry">
                        <mxPoint x="540" y="990" as="sourcePoint"/>
                        <mxPoint x="590" y="940" as="targetPoint"/>
                    </mxGeometry>
                </mxCell>
                <mxCell id="CWuYNWOtUaod2RrFY3A3-21" value="" style="endArrow=classic;html=1;fontColor=#393C56;strokeColor=#E07A5F;fillColor=#F2CC8F;exitX=0.5;exitY=1;exitDx=0;exitDy=0;entryX=0.5;entryY=0;entryDx=0;entryDy=0;labelBackgroundColor=#F4F1DE;" parent="Tb9AdFsS8pXjhhtc2Pzk-1" source="Tb9AdFsS8pXjhhtc2Pzk-5" target="CWuYNWOtUaod2RrFY3A3-13" edge="1">
                    <mxGeometry width="50" height="50" relative="1" as="geometry">
                        <mxPoint x="540" y="990" as="sourcePoint"/>
                        <mxPoint x="590" y="940" as="targetPoint"/>
                    </mxGeometry>
                </mxCell>
                <mxCell id="CWuYNWOtUaod2RrFY3A3-22" value="&lt;h3&gt;Oui&lt;/h3&gt;" style="text;html=1;align=center;verticalAlign=middle;whiteSpace=wrap;rounded=0;sketch=0;fontColor=#393C56;" parent="Tb9AdFsS8pXjhhtc2Pzk-1" vertex="1">
                    <mxGeometry x="450" y="750" width="140" height="20" as="geometry"/>
                </mxCell>
                <mxCell id="CWuYNWOtUaod2RrFY3A3-23" value="&lt;h3&gt;Non&lt;/h3&gt;" style="text;html=1;align=center;verticalAlign=middle;whiteSpace=wrap;rounded=0;sketch=0;fontColor=#393C56;" parent="Tb9AdFsS8pXjhhtc2Pzk-1" vertex="1">
                    <mxGeometry x="310" y="810" width="140" height="20" as="geometry"/>
                </mxCell>
                <mxCell id="CWuYNWOtUaod2RrFY3A3-24" value="" style="edgeStyle=elbowEdgeStyle;elbow=horizontal;endArrow=classic;html=1;fontColor=#393C56;strokeColor=#E07A5F;fillColor=#F2CC8F;exitX=1;exitY=0.5;exitDx=0;exitDy=0;entryX=1;entryY=0.5;entryDx=0;entryDy=0;labelBackgroundColor=#F4F1DE;" parent="Tb9AdFsS8pXjhhtc2Pzk-1" source="CWuYNWOtUaod2RrFY3A3-12" target="Tb9AdFsS8pXjhhtc2Pzk-8" edge="1">
                    <mxGeometry width="50" height="50" relative="1" as="geometry">
                        <mxPoint x="540" y="720" as="sourcePoint"/>
                        <mxPoint x="590" y="670" as="targetPoint"/>
                        <Array as="points">
                            <mxPoint x="640" y="740"/>
                        </Array>
                    </mxGeometry>
                </mxCell>
            </root>
        </mxGraphModel>
    </diagram>
</mxfile>